<svg xmlns="http://www.w3.org/2000/svg" xmlns:xlink="http://www.w3.org/1999/xlink" version="1.0" id="图层_1" x="0px" y="0px" width="256.68934829989496" height="228.8382323107882" viewBox="10.599990844726562 20.299999237060547 178.8000030517578 159.3999786376953" enable-background="new 0 0 200 200" xml:space="preserve" class="style-removed" preserveAspectRatio="none" data-parent="shape_CHqaasSnIT">
<g>
	<path fill-rule="evenodd" clip-rule="evenodd" fill="#CA0821" d="M80.4,46.7c-22.4,6.7-38.6,26.1-38.6,49c0,14.1,6.1,26.8,16,36.1   l0.3,0.3c0.4,0.3,0.7,0.7,1.1,1c36.1,31.7,114.5,16.5,129.9-33.9c0.2,1.9,0.3,3.8,0.3,5.7c0,41.3-40,74.8-89.4,74.8   c-49.4,0-89.4-33.5-89.4-74.8c0-37,32.1-67.7,74.3-73.7L80.4,46.7L80.4,46.7z M153.6,99.3c11.7,0,23.4-0.2,35.6-0.1   c-2.4-26.7-21.6-49.5-48.7-61c0.5,3.2,0.2,6.8-0.9,10.5l-2.9,10c10.5,9.4,17,22.5,17,37C153.7,96.9,153.7,98.1,153.6,99.3z" stroke-width="0"/>
	<path fill-rule="evenodd" clip-rule="evenodd" fill="#E6A363" d="M88,20.3h26.9c14.8,0,23.4,12.1,19.1,26.8l-27.9,97   c21.1-4.6,34.3-21.8,34.7-45c16.1,0.2,31.8-0.1,48.3,0C173.4,151,91,165.7,56.4,130.4L88,20.3z" stroke-width="0"/>
</g>
</svg>